<svg width="40" height="40" viewBox="0 0 40 40" fill="none" xmlns="http://www.w3.org/2000/svg">
<path d="M12.2451 9.94189C11.7928 9.94189 11.4248 10.3099 11.4248 10.7622V13.5244C11.4248 13.9767 11.7928 14.3447 12.2451 14.3447H15.0073C15.4596 14.3447 15.8276 13.9767 15.8276 13.5244V10.7622C15.8276 10.3099 15.4596 9.94189 15.0073 9.94189H12.2451ZM14.6557 13.1728H12.5967V11.1138H14.6557V13.1728Z" fill="#DF2E2E"/>
<path d="M17.5361 9.94189C17.0838 9.94189 16.7158 10.3099 16.7158 10.7622V13.5244C16.7158 13.9767 17.0838 14.3447 17.5361 14.3447H20.2982C20.7506 14.3447 21.1186 13.9767 21.1186 13.5244V10.7622C21.1186 10.3099 20.7506 9.94189 20.2982 9.94189H17.5361ZM19.9467 13.1728H17.8877V11.1138H19.9467V13.1728Z" fill="#DF2E2E"/>
<path d="M22.8267 14.3447H25.5888C26.0411 14.3447 26.4091 13.9767 26.4091 13.5244V10.7622C26.4091 10.3099 26.0411 9.94189 25.5888 9.94189H22.8267C22.3743 9.94189 22.0063 10.3099 22.0063 10.7622V13.5244C22.0063 13.9767 22.3743 14.3447 22.8267 14.3447ZM23.1782 11.1138H25.2372V13.1728H23.1782V11.1138Z" fill="#DF2E2E"/>
<path d="M28.1177 9.94189C27.6653 9.94189 27.2974 10.3099 27.2974 10.7622V13.5244C27.2974 13.9767 27.6653 14.3447 28.1177 14.3447H30.8799C31.3322 14.3447 31.7002 13.9767 31.7002 13.5244V10.7622C31.7002 10.3099 31.3322 9.94189 30.8799 9.94189H28.1177ZM30.5283 13.1728H28.4692V11.1138H30.5283V13.1728Z" fill="#DF2E2E"/>
<path d="M25.8506 7.73755V6.3313C25.8506 5.79278 25.4125 5.35474 24.874 5.35474H18.251C17.7125 5.35474 17.2744 5.79278 17.2744 6.3313V7.73755C17.2744 8.27606 17.7125 8.71411 18.251 8.71411H24.874C25.4125 8.71411 25.8506 8.27606 25.8506 7.73755ZM24.6787 7.54224H18.4463V6.52661H24.6787V7.54224Z" fill="#DF2E2E"/>
<path d="M15.7241 21.9646H25.5979C25.9215 21.9646 26.1838 21.7023 26.1838 21.3787C26.1838 21.0551 25.9215 20.7927 25.5979 20.7927H15.7241C15.4004 20.7927 15.1382 21.0551 15.1382 21.3787C15.1382 21.7023 15.4005 21.9646 15.7241 21.9646Z" fill="#DF2E2E"/>
<path d="M27.4863 21.9646C27.8099 21.9646 28.0723 21.7023 28.0723 21.3787C28.0723 21.0551 27.8099 20.7927 27.4863 20.7927C27.1627 20.7927 26.9004 21.0551 26.9004 21.3787C26.9004 21.7023 27.1627 21.9646 27.4863 21.9646Z" fill="#DF2E2E"/>
<path d="M15.7241 26.3008H25.5979C25.9215 26.3008 26.1838 26.0384 26.1838 25.7148C26.1838 25.3912 25.9215 25.1289 25.5979 25.1289H15.7241C15.4004 25.1289 15.1382 25.3912 15.1382 25.7148C15.1382 26.0384 15.4005 26.3008 15.7241 26.3008Z" fill="#DF2E2E"/>
<path d="M15.7241 30.6372H25.5979C25.9215 30.6372 26.1838 30.3749 26.1838 30.0513C26.1838 29.7277 25.9215 29.4653 25.5979 29.4653H15.7241C15.4004 29.4653 15.1382 29.7277 15.1382 30.0513C15.1382 30.3749 15.4005 30.6372 15.7241 30.6372Z" fill="#DF2E2E"/>
<path d="M27.4863 30.6372C27.8099 30.6372 28.0723 30.3749 28.0723 30.0513C28.0723 29.7277 27.8099 29.4653 27.4863 29.4653C27.1627 29.4653 26.9004 29.7277 26.9004 30.0513C26.9004 30.3749 27.1627 30.6372 27.4863 30.6372Z" fill="#DF2E2E"/>
<path d="M25.5979 33.8015H15.7241C15.4004 33.8015 15.1382 34.0639 15.1382 34.3875C15.1382 34.711 15.4004 34.9734 15.7241 34.9734H25.5979C25.9215 34.9734 26.1838 34.711 26.1838 34.3875C26.1838 34.0639 25.9215 33.8015 25.5979 33.8015Z" fill="#DF2E2E"/>
<path d="M27.4863 34.9734C27.8099 34.9734 28.0723 34.7111 28.0723 34.3875C28.0723 34.0638 27.8099 33.8015 27.4863 33.8015C27.1627 33.8015 26.9004 34.0638 26.9004 34.3875C26.9004 34.7111 27.1627 34.9734 27.4863 34.9734Z" fill="#DF2E2E"/>
<path d="M3.53564 28.6733H8.85346C9.17713 28.6733 9.43939 28.411 9.43939 28.0874C9.43939 27.7638 9.17713 27.5015 8.85346 27.5015H3.53564C3.21197 27.5015 2.94971 27.7638 2.94971 28.0874C2.94971 28.411 3.21197 28.6733 3.53564 28.6733Z" fill="#DF2E2E"/>
<path d="M3.53564 30.7043H8.85346C9.17713 30.7043 9.43939 30.442 9.43939 30.1184C9.43939 29.7948 9.17713 29.5325 8.85346 29.5325H3.53564C3.21197 29.5325 2.94971 29.7948 2.94971 30.1184C2.94971 30.442 3.21197 30.7043 3.53564 30.7043Z" fill="#DF2E2E"/>
<path d="M3.53564 32.7263H8.85346C9.17713 32.7263 9.43939 32.464 9.43939 32.1404C9.43939 31.8168 9.17713 31.5544 8.85346 31.5544H3.53564C3.21197 31.5544 2.94971 31.8168 2.94971 32.1404C2.94971 32.464 3.21197 32.7263 3.53564 32.7263Z" fill="#DF2E2E"/>
<path d="M9.43939 34.1804C9.43939 33.8568 9.17713 33.5945 8.85346 33.5945H3.53564C3.21197 33.5945 2.94971 33.8568 2.94971 34.1804C2.94971 34.504 3.21197 34.7664 3.53564 34.7664H8.85346C9.17713 34.7664 9.43939 34.504 9.43939 34.1804Z" fill="#DF2E2E"/>
<path d="M3.53564 35.6255C3.21197 35.6255 2.94971 35.8878 2.94971 36.2114C2.94971 36.535 3.21197 36.7974 3.53564 36.7974H5.91955C6.24322 36.7974 6.50549 36.535 6.50549 36.2114C6.50549 35.8878 6.24322 35.6255 5.91955 35.6255H3.53564Z" fill="#DF2E2E"/>
<path d="M39.7276 11.7762L22.2944 0.728623C21.8498 0.446904 21.2752 0.446904 20.8308 0.728623L3.3975 11.7762C3.12414 11.9494 3.04297 12.3114 3.21625 12.5848C3.38953 12.8582 3.75164 12.9392 4.02484 12.766L6.33367 11.3029V24.261H3.02461C2.76391 24.261 2.51867 24.3624 2.33398 24.547L0.285937 26.5951C0.101563 26.7796 0 27.0248 0 27.2855V38.506C0 39.0445 0.438047 39.4825 0.976562 39.4825H6.67969C7.00336 39.4825 7.26562 39.2202 7.26562 38.8966C7.26562 38.573 7.00336 38.3106 6.67969 38.3106H1.17187V27.3664L3.10547 25.4328H11.2176V38.3106H9.41406C9.09039 38.3106 8.82812 38.573 8.82812 38.8966C8.82812 39.2202 9.09039 39.4825 9.41406 39.4825H11.4129C11.9514 39.4825 12.3895 39.0445 12.3895 38.506V37.1415H35.8149C36.3534 37.1415 36.7915 36.7035 36.7915 36.1649V27.2912H37.387C37.8394 27.2912 38.2073 26.9232 38.2073 26.4709V24.2371C38.2073 23.7847 37.8394 23.4167 37.387 23.4167H36.7915V16.7182C36.7915 16.3946 36.5292 16.1322 36.2055 16.1322C35.8819 16.1322 35.6196 16.3946 35.6196 16.7182V23.4167H35.1531C34.7008 23.4167 34.3328 23.7847 34.3328 24.2371V26.4709C34.3328 26.9232 34.7008 27.2912 35.1531 27.2912H35.6196V35.9696H32.8827V31.0931C32.8827 30.7696 32.6204 30.5072 32.2967 30.5072C31.973 30.5072 31.7108 30.7696 31.7108 31.0931V35.9696H29.9037V33.0006C29.9037 32.7101 29.812 32.441 29.657 32.2193C29.812 31.9976 29.9037 31.7285 29.9037 31.4381V28.93H29.9319C30.3842 28.93 30.7522 28.5621 30.7522 28.1097V25.6286C30.7522 25.1763 30.3842 24.8083 29.9319 24.8083H29.9037V24.3281C29.9037 24.0376 29.812 23.7685 29.657 23.5468C29.812 23.3251 29.9037 23.056 29.9037 22.7656V19.9918C29.9037 19.238 29.2904 18.6246 28.5366 18.6246H14.5885C13.8347 18.6246 13.2213 19.238 13.2213 19.9918V22.7656C13.2213 23.056 13.313 23.3251 13.4681 23.5468C13.313 23.7685 13.2213 24.0376 13.2213 24.3281V27.1018C13.2213 27.3923 13.313 27.6614 13.4681 27.8831C13.313 28.1048 13.2213 28.3739 13.2213 28.6643V31.4381C13.2213 31.7285 13.313 31.9976 13.4681 32.2193C13.313 32.441 13.2213 32.7101 13.2213 33.0006V35.9696H12.3895V25.2375C12.3895 24.6996 11.9521 24.2618 11.4143 24.261V17.0487H31.7108V18.0891H31.4399C30.9876 18.0891 30.6196 18.4571 30.6196 18.9094V21.4538C30.6196 21.9061 30.9876 22.2741 31.4399 22.2741H31.7108V28.3588C31.7108 28.6824 31.973 28.9447 32.2967 28.9447C32.6204 28.9447 32.8827 28.6824 32.8827 28.3588V22.2741H33.9843C34.4366 22.2741 34.8046 21.9061 34.8046 21.4538V18.9094C34.8046 18.4571 34.4366 18.0891 33.9843 18.0891H32.8827V16.8534C32.8827 16.3149 32.4446 15.8768 31.9061 15.8768H11.219C10.6805 15.8768 10.2424 16.3149 10.2424 16.8534V24.261H7.50547V10.5603L21.458 1.71847C21.5216 1.67823 21.6036 1.67823 21.6671 1.71847L35.6197 10.5603V13.9838C35.6197 14.3074 35.882 14.5697 36.2056 14.5697C36.5293 14.5697 36.7916 14.3074 36.7916 13.9838V11.3029L39.1004 12.766C39.1977 12.8278 39.3062 12.8571 39.4135 12.8571C39.6075 12.8571 39.7974 12.7608 39.909 12.5848C40.0822 12.3114 40.0009 11.9494 39.7276 11.7762ZM35.5048 26.1193V24.5886H37.0355V26.1193H35.5048ZM29.5804 25.9802V27.7581H27.8024V25.9802H29.5804ZM14.3932 19.9918C14.3932 19.8842 14.4808 19.7965 14.5885 19.7965H28.5366C28.6443 19.7965 28.7319 19.8842 28.7319 19.9918V22.7656C28.7319 22.8732 28.6443 22.9609 28.5366 22.9609H14.5885C14.4808 22.9609 14.3932 22.8732 14.3932 22.7656V19.9918ZM14.3932 24.3281C14.3932 24.2204 14.4808 24.1328 14.5885 24.1328H28.5366C28.6443 24.1328 28.7319 24.2204 28.7319 24.3281V24.8083H27.4509C26.9985 24.8083 26.6305 25.1763 26.6305 25.6286V27.2971H14.5885C14.4808 27.2971 14.3932 27.2095 14.3932 27.1018V24.3281ZM14.3932 28.6643C14.3932 28.5567 14.4808 28.469 14.5885 28.469H26.7145C26.848 28.7415 27.1275 28.93 27.4509 28.93H28.7319V31.4381C28.7319 31.5457 28.6443 31.6334 28.5366 31.6334H14.5885C14.4808 31.6334 14.3932 31.5457 14.3932 31.4381V28.6643ZM14.3932 33.0006C14.3932 32.8929 14.4808 32.8053 14.5885 32.8053H28.5366C28.6443 32.8053 28.7319 32.8929 28.7319 33.0006V35.9696H14.3932V33.0006ZM31.7915 19.261H33.6327V21.1022H31.7915V19.261Z" fill="#DF2E2E"/>
</svg>
