<svg width="40" height="38" viewBox="0 0 40 38" fill="none" xmlns="http://www.w3.org/2000/svg">
<path d="M39.4141 22.5573C39.7377 22.5573 40 22.2947 40 21.9709V15.1185C40 14.3641 39.3866 13.7503 38.6328 13.7503H38.2519V7.18545C38.2519 6.73278 37.8839 6.36455 37.4316 6.36455H36.6653V1.59996C36.6653 1.14729 36.2973 0.779053 35.845 0.779053H9.34227C8.88992 0.779053 8.52195 1.14729 8.52195 1.59996V3.57176H7.13031C6.67797 3.57176 6.31 3.94 6.31 4.39266V8.96947H5.92906C5.17523 8.96947 4.56187 9.58327 4.56187 10.3376V14.3366V18.3982C3.19094 19.4624 2.30609 21.1252 2.30609 22.9919V24.7811H1.36719C0.613359 24.7811 0 25.3949 0 26.1493V35.8528C0 36.6071 0.613359 37.2209 1.36719 37.2209H14.8619C15.5577 37.2209 16.1325 36.6978 16.2172 36.0241H38.6328C39.3866 36.0241 40 35.4103 40 34.6559V24.7073C40 24.3834 39.7377 24.1209 39.4141 24.1209C39.0905 24.1209 38.8281 24.3834 38.8281 24.7073V34.656C38.8281 34.7637 38.7405 34.8514 38.6328 34.8514H16.2291V26.1494C16.2291 25.395 15.6157 24.7812 14.8619 24.7812H13.923V22.992C13.923 19.7868 11.3173 17.1794 8.11453 17.1794C7.26633 17.1794 6.46086 17.3638 5.73367 17.6921V14.923H38.6328C38.7405 14.923 38.8281 15.0107 38.8281 15.1184V21.9709C38.8281 22.2947 39.0905 22.5573 39.4141 22.5573ZM15.0572 35.8528C15.0572 35.9606 14.9695 36.0483 14.8619 36.0483H1.36719C1.25953 36.0483 1.17188 35.9606 1.17188 35.8528V33.9631H15.0572V35.8528ZM14.8619 25.9539C14.9695 25.9539 15.0572 26.0417 15.0572 26.1494V28.0392H12.5781C12.2545 28.0392 11.9922 28.3017 11.9922 28.6255C11.9922 28.9494 12.2545 29.2119 12.5781 29.2119H15.0572V32.7903H1.17188V29.2119H9.84375C10.1673 29.2119 10.4297 28.9494 10.4297 28.6255C10.4297 28.3017 10.1673 28.0392 9.84375 28.0392H1.17188V26.1494C1.17188 26.0417 1.25953 25.9539 1.36719 25.9539H14.8619ZM5.82172 24.7812V22.992C5.82172 21.7268 6.85031 20.6975 8.11461 20.6975C9.37891 20.6975 10.4075 21.7268 10.4075 22.992V24.7812H5.82172ZM8.11453 18.3521C10.6712 18.3521 12.7512 20.4336 12.7512 22.992V24.7812H11.5793V22.992C11.5793 21.0801 10.025 19.5248 8.11453 19.5248C6.20406 19.5248 4.64977 21.0802 4.64977 22.992V24.7812H3.47789V22.992C3.47797 20.4335 5.55789 18.3521 8.11453 18.3521ZM7.48187 4.74448H27.8906C28.2142 4.74448 28.4766 4.48195 28.4766 4.15812C28.4766 3.8343 28.2142 3.57176 27.8906 3.57176H9.69383V1.95177H35.4934V6.36455H34.4533V4.39266C34.4533 3.94 34.0853 3.57176 33.633 3.57176H30.625C30.3014 3.57176 30.0391 3.8343 30.0391 4.15812C30.0391 4.48195 30.3014 4.74448 30.625 4.74448H33.2815V6.36455H10.9288C10.4765 6.36455 10.1085 6.73278 10.1085 7.18545V8.96947H7.48187V4.74448ZM5.73375 13.7503V10.3377C5.73375 10.23 5.82141 10.1423 5.92906 10.1423H18.1952C18.269 10.1423 18.3357 10.1832 18.3692 10.249L20.1513 13.7503H5.73375ZM37.08 13.7503H21.4663L19.4134 9.71672C19.1788 9.25577 18.712 8.96947 18.1951 8.96947H11.2803V7.53727H37.0799V13.7503H37.08Z" fill="#DF2E2E"/>
<path d="M25.1182 10.7975H33.8485C34.1721 10.7975 34.4344 10.5349 34.4344 10.2111C34.4344 9.88729 34.1721 9.62476 33.8485 9.62476H25.1182C24.7946 9.62476 24.5322 9.88729 24.5322 10.2111C24.5322 10.5349 24.7946 10.7975 25.1182 10.7975Z" fill="#DF2E2E"/>
<path d="M25.5469 27.9058C25.0084 27.9058 24.5703 28.3441 24.5703 28.883V31.3774C24.5703 31.9163 25.0084 32.3547 25.5469 32.3547H35.3511C35.8896 32.3547 36.3277 31.9163 36.3277 31.3774V28.883C36.3277 28.3441 35.8896 27.9058 35.3511 27.9058H25.5469ZM35.1558 31.1819H25.7422V29.0785H35.1558V31.1819Z" fill="#DF2E2E"/>
</svg>
