<svg width="40" height="32" viewBox="0 0 40 32" fill="none" xmlns="http://www.w3.org/2000/svg">
<path d="M20.7953 26.2137H20.7953C20.1432 26.143 19.5034 26.0108 18.8825 25.8215C18.9262 25.7367 18.9568 25.6437 18.9697 25.5447C19.0053 25.2726 19.0234 24.9954 19.0234 24.7207C19.0234 24.4459 19.0053 24.1687 18.9697 23.8965C18.9143 23.474 18.5505 23.1554 18.1234 23.1554H17.0975C17.0457 23.0104 16.9868 22.8679 16.9209 22.7288L17.6461 22.0036C17.9479 21.7015 17.9798 21.219 17.7203 20.8811C17.3843 20.4438 16.9923 20.0517 16.5549 19.7157C16.2168 19.4562 15.7343 19.4881 15.4323 19.7901L14.7072 20.5151C14.5681 20.4493 14.4256 20.3902 14.2806 20.3385V19.3126C14.2806 18.8855 13.962 18.5217 13.5393 18.4663C12.9952 18.3951 12.4356 18.3951 11.8911 18.4663C11.8646 18.4697 11.8386 18.4745 11.8129 18.4803C11.6804 17.9789 11.5843 17.4665 11.5277 16.9461C11.4822 16.5278 11.1317 16.2124 10.7123 16.2124H7.92926C7.69973 16.2124 7.47918 16.3094 7.32402 16.4785C7.16941 16.647 7.09207 16.874 7.11168 17.1015C7.21832 18.333 7.47527 19.5322 7.87246 20.6795C7.81723 20.7456 7.76285 20.8125 7.71035 20.8808C7.45059 21.2189 7.48246 21.7015 7.78457 22.0036L8.50965 22.7287C8.44379 22.8677 8.3848 23.0103 8.33301 23.1554H7.3073C6.88012 23.1554 6.51629 23.474 6.46098 23.8965C6.42535 24.1685 6.40723 24.4458 6.40723 24.7207C6.40723 24.9955 6.42527 25.2728 6.46098 25.5446C6.51629 25.9672 6.88012 26.2859 7.3073 26.2859H8.33316C8.38496 26.431 8.44387 26.5735 8.5098 26.7126L7.78473 27.4377C7.48269 27.7397 7.45082 28.2224 7.71043 28.5603C8.04637 28.9976 8.43848 29.3897 8.87574 29.7256C9.21371 29.9853 9.69637 29.9533 9.99832 29.6513L10.7235 28.9262C10.8625 28.992 11.0051 29.0511 11.1501 29.1028V30.1287C11.1501 30.5557 11.4687 30.9196 11.8914 30.975C12.1634 31.0106 12.4407 31.0287 12.7154 31.0287C12.99 31.0287 13.2673 31.0106 13.5395 30.975C13.962 30.9196 14.2806 30.5558 14.2806 30.1287V29.1028C14.4256 29.051 14.5682 28.992 14.7072 28.9262L15.4324 29.6514C15.7343 29.9533 16.2169 29.9852 16.555 29.7255C16.5672 29.7161 16.5791 29.7062 16.5912 29.6967C17.8796 30.1925 19.2389 30.5084 20.6399 30.6297C20.6632 30.6317 20.6865 30.6327 20.7097 30.6327C20.9132 30.6327 21.1116 30.5562 21.2628 30.4175C21.432 30.2623 21.529 30.0417 21.529 29.8122V27.0291C21.5291 26.6097 21.2136 26.2591 20.7953 26.2137ZM10.4009 17.3844C10.5325 18.3519 10.7854 19.293 11.1501 20.1888V20.3385C11.0051 20.3903 10.8625 20.4493 10.7235 20.5151L9.9984 19.7901C9.69652 19.4881 9.21387 19.4561 8.87574 19.7158C8.85394 19.7326 8.83269 19.7501 8.81113 19.7671C8.57793 18.9937 8.41121 18.1976 8.31793 17.3844H10.4009ZM13.7179 28.0545C13.3536 28.1638 13.1087 28.4922 13.1087 28.8717V29.8418C12.8468 29.8617 12.5839 29.8617 12.3219 29.8418V28.8717C12.3219 28.4922 12.0771 28.1638 11.7126 28.0545C11.4893 27.9876 11.2719 27.8976 11.0668 27.7872C10.7319 27.6069 10.3264 27.6658 10.0581 27.9342L9.37238 28.6199C9.17316 28.4489 8.98707 28.2629 8.81605 28.0635L9.5016 27.378C9.77004 27.1096 9.8291 26.7042 9.64871 26.3691C9.5384 26.1642 9.44848 25.9469 9.38144 25.7235C9.27223 25.359 8.94379 25.114 8.56418 25.114H7.59418C7.58426 24.9831 7.57918 24.8515 7.57918 24.7207C7.57918 24.5898 7.58418 24.4583 7.59418 24.3272H8.56426C8.94387 24.3272 9.2723 24.0823 9.38144 23.718C9.44855 23.4944 9.53848 23.2771 9.64879 23.0722C9.82918 22.7372 9.77012 22.3318 9.50176 22.0634L8.81613 21.3777C8.98715 21.1784 9.17324 20.9923 9.37246 20.8214L10.0582 21.507C10.3264 21.7754 10.7318 21.8344 11.0669 21.654C11.272 21.5437 11.4893 21.4537 11.7128 21.3867C12.0772 21.2774 12.322 20.949 12.322 20.5695V19.5994C12.584 19.5795 12.8468 19.5795 13.1088 19.5994V20.5695C13.1088 20.949 13.3536 21.2774 13.7181 21.3867C13.9415 21.4537 14.1588 21.5436 14.3639 21.654C14.6989 21.8344 15.1043 21.7753 15.3726 21.5069L16.0583 20.8212C16.2576 20.9922 16.4436 21.1783 16.6146 21.3776L15.9289 22.0633C15.9289 22.0633 15.9289 22.0633 15.9289 22.0634C15.6607 22.3318 15.6016 22.7372 15.782 23.0721C15.8924 23.2771 15.9823 23.4944 16.0493 23.7179C16.1586 24.0823 16.487 24.3271 16.8664 24.3271H17.8365C17.8464 24.4581 17.8515 24.5896 17.8515 24.7205C17.8515 24.8514 17.8465 24.9829 17.8365 25.1139H16.8664C16.487 25.1139 16.1586 25.3587 16.0493 25.7232C15.9823 25.9466 15.8923 26.1639 15.7819 26.369C15.6015 26.704 15.6607 27.1094 15.9289 27.3777L16.6146 28.0634C16.4436 28.2627 16.2575 28.4488 16.0583 28.6198L15.3726 27.9341C15.1043 27.6658 14.6989 27.6066 14.3639 27.7871C14.1587 27.8976 13.9415 27.9875 13.7179 28.0545ZM20.3572 29.4237C19.3887 29.3126 18.4446 29.0978 17.5346 28.7894C17.598 28.7143 17.6603 28.6383 17.7203 28.5603C17.9799 28.2223 17.948 27.7398 17.646 27.4377L16.9209 26.7126C16.9726 26.6033 17.0188 26.4914 17.0619 26.3783C18.1024 26.859 19.2111 27.1849 20.3572 27.3407V29.4237Z" fill="#DF2E2E"/>
<path d="M39.9001 15.4747C38.9191 14.0183 37.6866 12.7889 36.2827 11.8259C35.6006 9.36812 34.2908 7.10413 32.4642 5.27749C29.9899 2.80327 26.7138 1.27499 23.2393 0.974208C23.0124 0.954521 22.7849 1.03186 22.6164 1.1864C22.4472 1.34155 22.3502 1.56218 22.3502 1.79171V4.57476C22.3502 4.99429 22.6656 5.34476 23.0839 5.39015H23.0838C25.4392 5.64593 27.6631 6.71343 29.3456 8.39601C29.706 8.75632 30.0372 9.14187 30.339 9.54788C29.7502 9.47046 29.1529 9.42976 28.5499 9.42976C23.9924 9.42976 19.7494 11.6895 17.1996 15.4747C17.0663 15.6726 17.0663 15.9315 17.1996 16.1294C19.7494 19.9144 23.9924 22.1742 28.5499 22.1742C29.1529 22.1742 29.7502 22.1335 30.339 22.0561C30.0372 22.4621 29.706 22.8477 29.3456 23.208C27.6631 24.8905 25.4393 25.958 23.0839 26.2137C22.6656 26.2591 22.3502 26.6096 22.3502 27.0291V29.8122C22.3502 30.0417 22.4472 30.2623 22.6164 30.4175C22.7677 30.5562 22.966 30.6327 23.1695 30.6327C23.1927 30.6327 23.216 30.6317 23.2394 30.6297C26.3857 30.3573 29.312 29.1148 31.7019 27.0366C31.9461 26.8242 31.9719 26.4541 31.7595 26.2099C31.5472 25.9657 31.177 25.9399 30.9329 26.1523C28.8289 27.9819 26.2738 29.1084 23.5221 29.4235V27.3405C26.0261 26.9987 28.378 25.8329 30.1744 24.0364C30.8638 23.347 31.4585 22.575 31.9511 21.7448C32.9248 21.4951 33.864 21.1391 34.7537 20.6861C34.2685 21.9595 33.5934 23.1605 32.7399 24.2499C32.5404 24.5047 32.5852 24.873 32.8399 25.0725C33.0947 25.2722 33.4629 25.2273 33.6624 24.9726C34.8806 23.4176 35.7666 21.6538 36.2856 19.7759C37.6882 18.8134 38.9196 17.5846 39.9 16.1292C40.0335 15.9315 40.0335 15.6725 39.9001 15.4747ZM30.1743 7.56733C28.3779 5.77093 26.0261 4.60507 23.5221 4.26327V2.18046C26.5789 2.53304 29.4475 3.91804 31.6356 6.10616C33.011 7.48163 34.0685 9.12609 34.7521 10.9169C33.8629 10.4644 32.9242 10.1086 31.9511 9.85905C31.4585 9.02882 30.8637 8.25671 30.1743 7.56733ZM18.3998 15.802C19.7124 13.9801 21.4656 12.5725 23.4598 11.6837C22.4346 12.6852 21.5413 13.9952 20.8437 15.564C20.7763 15.7155 20.7763 15.8885 20.8437 16.0401C21.5412 17.6089 22.4346 18.9189 23.4598 19.9203C21.4656 19.0316 19.7124 17.6238 18.3998 15.802ZM28.5499 21.0023C25.9712 21.0023 23.5453 19.064 22.0229 15.802C23.5453 12.5401 25.9712 10.6017 28.5499 10.6017C31.1287 10.6017 33.5545 12.5401 35.0769 15.802C33.5545 19.064 31.1287 21.0023 28.5499 21.0023ZM33.6401 19.9203C34.6653 18.9188 35.5586 17.6088 36.2561 16.0401C36.3235 15.8886 36.3235 15.7155 36.2561 15.564C35.5586 13.9951 34.6652 12.6851 33.64 11.6837C35.6342 12.5725 37.3874 13.9801 38.7 15.802C37.3874 17.6238 35.6343 19.0316 33.6401 19.9203Z" fill="#DF2E2E"/>
<path d="M31.1838 14.8018C31.2988 15.1043 31.6372 15.2565 31.9397 15.1414C32.2422 15.0265 32.3942 14.6881 32.2793 14.3856C31.6946 12.8466 30.1959 11.8127 28.5498 11.8127C26.3502 11.8127 24.5605 13.6024 24.5605 15.802C24.5605 18.0017 26.3502 19.7913 28.5498 19.7913C30.0668 19.7913 31.4329 18.9483 32.1151 17.5913C32.2605 17.3021 32.1439 16.9499 31.8548 16.8046C31.5657 16.6592 31.2134 16.7758 31.0681 17.0649C30.5861 18.0238 29.6212 18.6194 28.5498 18.6194C26.9963 18.6194 25.7324 17.3556 25.7324 15.802C25.7324 14.2485 26.9963 12.9846 28.5498 12.9846C29.7123 12.9846 30.7709 13.7149 31.1838 14.8018Z" fill="#DF2E2E"/>
<path d="M26.7891 15.802C26.7891 16.773 27.5789 17.5628 28.5498 17.5628C29.5208 17.5628 30.3106 16.773 30.3106 15.802C30.3106 14.8311 29.5208 14.0413 28.5498 14.0413C27.5789 14.0413 26.7891 14.8311 26.7891 15.802ZM29.1388 15.802C29.1388 16.1268 28.8746 16.3909 28.5498 16.3909C28.2251 16.3909 27.9609 16.1268 27.9609 15.802C27.9609 15.4773 28.2251 15.2131 28.5498 15.2131C28.8746 15.2131 29.1388 15.4773 29.1388 15.802Z" fill="#DF2E2E"/>
<path d="M8.58938 9.22124C7.77836 10.8651 7.27172 12.6557 7.11188 14.5023C7.09219 14.7298 7.16953 14.9568 7.32406 15.1253C7.47922 15.2945 7.69992 15.3916 7.92945 15.3916H10.7125C11.1319 15.3916 11.4823 15.0762 11.5279 14.6578C11.6282 13.7343 11.8489 12.839 12.1811 11.9886L13.1563 12.7399C13.0728 12.9605 13.0267 13.1994 13.0267 13.4488C13.0267 14.5569 13.9283 15.4584 15.0363 15.4584C16.1444 15.4584 17.0459 14.5569 17.0459 13.4488C17.0459 13.0961 16.9543 12.7644 16.7939 12.4759L18.4629 10.7522C18.7377 10.8935 19.0488 10.9738 19.3785 10.9738C20.4866 10.9738 21.3881 10.0723 21.3881 8.96421C21.3881 7.85616 20.4866 6.9546 19.3785 6.9546C18.2705 6.9546 17.3689 7.85616 17.3689 8.96421C17.3689 9.31702 17.4605 9.64866 17.6209 9.9371L15.952 11.6609C15.6771 11.5195 15.366 11.4392 15.0363 11.4392C14.6027 11.4392 14.201 11.5777 13.8723 11.8123L12.6828 10.8958C13.0609 10.1848 13.5229 9.51444 14.0645 8.8971C14.278 8.6539 14.2538 8.28366 14.0106 8.07022C13.7674 7.85679 13.3972 7.88093 13.1838 8.12413C12.6262 8.7596 12.1448 9.44569 11.7427 10.1714L10.0923 8.89968C10.6827 7.88687 11.4038 6.94616 12.2439 6.10608C14.432 3.91796 17.3005 2.53296 20.3573 2.18038V4.26327C18.5623 4.50819 16.833 5.17718 15.3381 6.20765C15.0716 6.39132 15.0045 6.75616 15.1882 7.02265C15.3719 7.28913 15.7367 7.35624 16.0032 7.17257C17.4249 6.19257 19.0821 5.57624 20.7955 5.39023C21.2138 5.34483 21.5292 4.99437 21.5292 4.57484V1.79179C21.5292 1.56226 21.4322 1.34163 21.263 1.18648C21.0945 1.03187 20.8673 0.954288 20.6401 0.974288C17.1656 1.27507 13.8895 2.80335 11.4152 5.27757C10.5396 6.15319 9.7832 7.1296 9.15703 8.17921L8.23203 7.46655C8.31547 7.24593 8.36156 7.0071 8.36156 6.75765C8.36156 5.64952 7.46 4.74804 6.35195 4.74804C5.24391 4.74804 4.34234 5.6496 4.34234 6.75765C4.34234 7.08694 4.4225 7.39772 4.56352 7.67233L2.98359 9.20046C2.69492 9.03983 2.36289 8.94796 2.00977 8.94796C0.901563 8.9478 0 9.84937 0 10.9574C0 12.0655 0.901563 12.967 2.00961 12.967C3.11766 12.967 4.01922 12.0655 4.01922 10.9574C4.01922 10.6281 3.93906 10.3173 3.79805 10.0427L5.37797 8.5146C5.66664 8.67523 5.99867 8.7671 6.3518 8.7671C6.78547 8.7671 7.18711 8.62858 7.51586 8.39405L8.58938 9.22124ZM19.3786 8.12655C19.8405 8.12655 20.2163 8.50241 20.2163 8.96429C20.2163 9.42616 19.8405 9.80202 19.3786 9.80202C18.9167 9.80202 18.5409 9.42616 18.5409 8.96429C18.5409 8.50241 18.9166 8.12655 19.3786 8.12655ZM15.0363 12.6111C15.4983 12.6111 15.8741 12.9869 15.8741 13.4488C15.8741 13.9107 15.4982 14.2866 15.0363 14.2866C14.5745 14.2866 14.1986 13.9107 14.1986 13.4488C14.1986 12.9869 14.5744 12.6111 15.0363 12.6111ZM9.53836 9.95241L11.2187 11.247C10.8173 12.1911 10.5409 13.1881 10.4009 14.2196H8.3182C8.48953 12.7338 8.90547 11.2928 9.53836 9.95241ZM2.00961 11.7952C1.54766 11.7952 1.17188 11.4194 1.17188 10.9575C1.17188 10.4956 1.54773 10.1198 2.00961 10.1198C2.47148 10.1198 2.84734 10.4956 2.84734 10.9575C2.84734 11.4194 2.47156 11.7952 2.00961 11.7952ZM6.35188 7.5953C5.88992 7.5953 5.51414 7.21944 5.51414 6.75757C5.51414 6.29569 5.89 5.91983 6.35188 5.91983C6.81375 5.91983 7.18961 6.29569 7.18961 6.75757C7.18961 7.21944 6.81375 7.5953 6.35188 7.5953Z" fill="#DF2E2E"/>
<path d="M15.0591 24.7207C15.0591 23.4284 14.0077 22.377 12.7153 22.377C11.423 22.377 10.3716 23.4284 10.3716 24.7207C10.3716 26.013 11.423 27.0645 12.7153 27.0645C14.0077 27.0645 15.0591 26.013 15.0591 24.7207ZM12.7153 25.8926C12.0692 25.8926 11.5435 25.3669 11.5435 24.7207C11.5435 24.0745 12.0692 23.5488 12.7153 23.5488C13.3615 23.5488 13.8872 24.0745 13.8872 24.7207C13.8872 25.3669 13.3615 25.8926 12.7153 25.8926Z" fill="#DF2E2E"/>
</svg>
