<svg width="40" height="40" viewBox="0 0 40 40" fill="none" xmlns="http://www.w3.org/2000/svg">
<path d="M10.9647 33.6606C11.2884 33.6606 11.5506 33.3983 11.5506 33.0747V32.5168H11.5806C12.5182 32.5168 13.281 31.754 13.281 30.8165C13.281 29.8789 12.5182 29.1161 11.5806 29.1161H10.3489C10.0575 29.1161 9.82031 28.879 9.82031 28.5875C9.82031 28.2961 10.0574 28.059 10.3489 28.059H12.5191C12.8428 28.059 13.1051 27.7967 13.1051 27.4731C13.1051 27.1495 12.8428 26.8872 12.5191 26.8872H11.5507V26.3293C11.5507 26.0058 11.2884 25.7434 10.9648 25.7434C10.6411 25.7434 10.3788 26.0058 10.3788 26.3293V26.8872H10.3489C9.41125 26.8872 8.64844 27.65 8.64844 28.5875C8.64844 29.5251 9.41125 30.2879 10.3489 30.2879H11.5807C11.8721 30.2879 12.1092 30.525 12.1092 30.8165C12.1092 31.1079 11.8722 31.345 11.5807 31.345H9.41047C9.0868 31.345 8.82453 31.6073 8.82453 31.9309C8.82453 32.2545 9.0868 32.5168 9.41047 32.5168H10.3789V33.0747C10.3788 33.3983 10.6411 33.6606 10.9647 33.6606Z" fill="#DF2E2E"/>
<path d="M39.4141 34.8469H37.5891V22.2557C37.5891 21.9321 37.3268 21.6697 37.0031 21.6697C36.6795 21.6697 36.4172 21.9321 36.4172 22.2557V34.8469H34.9653V16.3456H36.4172V19.5213C36.4172 19.8449 36.6795 20.1072 37.0031 20.1072C37.3268 20.1072 37.5891 19.8449 37.5891 19.5213V16.1506C37.5891 15.6119 37.1509 15.1737 36.6121 15.1737H34.7704C34.2316 15.1737 33.7934 15.6119 33.7934 16.1506V34.8469H32.5166V20.201C32.5166 19.6623 32.0784 19.2241 31.5397 19.2241H29.698C29.1592 19.2241 28.721 19.6623 28.721 20.201V34.8469H27.4441V22.6119C27.4441 22.0733 27.0059 21.6351 26.4672 21.6351H24.6255C24.0868 21.6351 23.6486 22.0733 23.6486 22.6119V34.8469H22.3717V28.2053C22.3717 27.6666 21.9335 27.2283 21.3948 27.2283H19.5531C19.0144 27.2283 18.5762 27.6666 18.5762 28.2053V34.8469H14.6281C14.6802 34.8097 14.7323 34.7726 14.7835 34.7337C15.8528 33.9205 16.649 32.7662 17.0255 31.4833C17.1167 31.1727 16.9389 30.8472 16.6284 30.756C16.3177 30.6648 15.9922 30.8427 15.9011 31.1532C15.2627 33.328 13.233 34.8469 10.965 34.8469C8.12804 34.8469 5.82 32.5389 5.82 29.7019C5.82 26.865 8.12804 24.5569 10.965 24.5569C13.4144 24.5569 15.5368 26.2983 16.0113 28.6976C16.0741 29.015 16.3823 29.2216 16.6998 29.1586C17.0173 29.0958 17.2237 28.7876 17.1609 28.4701C16.6163 25.7169 14.3053 23.6696 11.5509 23.4128V21.7886L12.5663 20.7733C14.9904 20.5815 17.2629 19.5347 18.9871 17.8106C20.6358 16.1619 21.679 13.9789 21.9245 11.6636C21.9559 11.3678 21.8534 11.0776 21.6434 10.8676C21.4334 10.6576 21.1439 10.5547 20.8473 10.5865C18.5321 10.832 16.3491 11.8752 14.7003 13.524C12.9762 15.248 11.9295 17.5205 11.7377 19.9447L11.5509 20.1314V17.3173C11.5509 16.9937 11.2887 16.7314 10.965 16.7314C10.6413 16.7314 10.3791 16.9937 10.3791 17.3173V20.1314L10.1924 19.9447C10.0005 17.5206 8.95375 15.248 7.22968 13.524C5.58093 11.8752 3.39789 10.832 1.08265 10.5865C0.786715 10.5549 0.496715 10.6576 0.286715 10.8676C0.0767151 11.0777 -0.0257849 11.3678 0.00554322 11.6636C0.251012 13.9788 1.29421 16.1619 2.94297 17.8106C4.66718 19.5347 6.93968 20.5815 9.36367 20.7733L10.3791 21.7886V23.4133C7.16976 23.71 4.64812 26.4165 4.64812 29.7019C4.64812 33.1851 7.48187 36.0188 10.965 36.0188H39.4141C39.7377 36.0188 40 35.7565 40 35.4329C40 35.1093 39.7377 34.8469 39.4141 34.8469ZM15.5291 14.3525C16.9316 12.9499 18.7705 12.0423 20.7304 11.7805C20.4685 13.7403 19.5609 15.5794 18.1584 16.9819C16.9968 18.1436 15.5539 18.9569 13.9848 19.3547L17.5006 15.839C17.7294 15.6101 17.7294 15.2391 17.5006 15.0104C17.2717 14.7815 16.9008 14.7815 16.6719 15.0104L13.1562 18.5261C13.5541 16.9569 14.3674 15.514 15.5291 14.3525ZM4.42937 15.8389L7.94515 19.3547C6.37617 18.9569 4.93328 18.1435 3.77164 16.9819C2.36906 15.5794 1.46148 13.7403 1.19968 11.7805C3.15937 12.0423 4.99843 12.95 6.40093 14.3525C7.56257 15.514 8.37593 16.9569 8.77375 18.526L5.25804 15.0103C5.02914 14.7815 4.6582 14.7815 4.42937 15.0103C4.20054 15.239 4.20054 15.6101 4.42937 15.8389ZM29.893 20.396H31.3448V34.8469H29.893V20.396ZM24.8205 22.8069H26.2723V34.8469H24.8205V22.8069ZM19.7481 28.4002H21.1999V34.8469H19.7481V28.4002Z" fill="#DF2E2E"/>
<path d="M32.2104 6.71343L18.9559 19.9679C18.6021 20.3217 18.4072 20.7921 18.4072 21.2924C18.4072 21.7927 18.6021 22.2631 18.9559 22.6169C19.3211 22.982 19.8007 23.1646 20.2804 23.1646C20.76 23.1646 21.2396 22.982 21.6049 22.6169L25.0555 19.1662C25.2843 18.9373 25.2843 18.5663 25.0555 18.3376C24.8267 18.1087 24.4557 18.1087 24.2268 18.3376L20.7763 21.7882C20.5027 22.0616 20.0579 22.0616 19.7846 21.7882C19.6521 21.6558 19.5791 21.4796 19.5791 21.2923C19.5791 21.1051 19.6521 20.9289 19.7846 20.7965L33.2875 7.29351C33.4425 7.13859 33.5279 6.93257 33.5279 6.71335C33.5279 6.49421 33.4425 6.2882 33.2875 6.13335L32.9003 5.74601L36.3455 5.22148L35.796 8.64171L35.4395 8.28515C35.1195 7.96531 34.5992 7.96523 34.2793 8.28515L26.1603 16.4041C25.9314 16.633 25.9314 17.004 26.1603 17.2327C26.3891 17.4616 26.76 17.4616 26.9889 17.2327L34.8593 9.36242L35.4537 9.95695C35.6727 10.1759 35.9917 10.2526 36.2864 10.1573C36.581 10.0619 36.7945 9.81273 36.8437 9.50695L37.5789 4.93148C37.6202 4.67367 37.5351 4.40906 37.3513 4.22374C37.1674 4.03843 36.9037 3.95116 36.6454 3.99046L32.0366 4.69218C31.729 4.73898 31.4777 4.95171 31.3807 5.24726C31.2837 5.54288 31.36 5.8632 31.5801 6.0832L32.2104 6.71343Z" fill="#DF2E2E"/>
</svg>
