<?xml version="1.0" encoding="UTF-8"?>
<svg id="Layer_2" data-name="Layer 2" xmlns="http://www.w3.org/2000/svg" viewBox="0 0 528.44 389.78">
  <defs>
    <style>
      .cls-1 {
        fill: #fb8500;
      }

      .cls-2 {
        fill: none;
        stroke: #f27b22;
        stroke-miterlimit: 10;
        stroke-width: 2px;
      }

      .cls-3, .cls-4, .cls-5 {
        fill: #e5e5e5;
      }

      .cls-4 {
        font-family: AMSManoja, 'AMS Manoja';
        font-size: 33.85px;
      }

      .cls-5 {
        font-family: Poppins-Medium, Poppins;
        font-size: 168.53px;
        font-weight: 500;
      }
    </style>
  </defs>
  <g id="Layer_1-2" data-name="Layer 1">
    <g>
      <g>
        <text class="cls-5" transform="translate(0 260.67) scale(.98 1)"><tspan x="0" y="0">NGTO</tspan></text>
        <line class="cls-2" x1="12" y1="272.43" x2="465.17" y2="272.43"/>
        <path class="cls-3" d="M476.72,224.86c9.37-12.46,16.07-26.02,16.73-41.93.38-9.11,1.13-18.12,4.65-27.92,1.68,5.48-.64,10.7,3.15,14.69,3.31-1.92,2.88-5.22,2.39-7.58-1.84-8.73,1.26-16.18,4.62-23.88,4.2-9.61,7.39-19.6,8.74-30.1.39-3.04.28-5.92-.51-8.87-1.01-3.73-3.26-5.83-7.13-5.66-3.66.16-4.94-1.14-4.77-4.95,1.69-39-24.91-71.96-62.39-81.82-36.76-9.67-73.06,7.62-89.04,42.17-6.16,13.31-9.35,27.28-10.08,41.87-.06,1.12.27,2.36-.76,3.32-1.94-.03-1.93-1.52-1.92-2.78.47-34.22,11.07-63.46,41.5-82.52,9.47-5.93,20.17-8.38,31.37-8.78,17.39-.63,34.28,1.53,50.05,9.23,25.48,12.44,39.02,33.8,44.61,60.88.6,2.92.78,5.92,1.18,8.89.64,4.67.81,8.94,6.74,11.22,4.89,1.88,5.87,7.63,6.19,12.82.73,12.02-2.02,23.47-5.49,34.82-.24.8-.46,1.61-.8,2.37-3.81,8.36-4.32,16.83-1.6,25.69,1.88,6.1,1.84,12.46.15,18.69-.66,2.45-.03,4.51,1.33,6.59,15.56,23.72,16.16,48.8,5.86,74.42-10.39,25.87-13.43,52.34-8.54,79.75.17.94.13,1.93.24,3.57-3.37-2.02-4.6-4.85-5.88-7.58-6.89-14.72-6.2-30.07-3.38-45.48,1.95-10.66,5.32-20.94,9.72-30.87.86-1.95,1.38-4.05,2.2-6.48-10.83,8.95-18.74,29.55-18.15,46.05.34,9.48,1.85,18.91,1.32,28.42-.33,5.93-1,11.81-2.83,17.82-1.35-9.71-9.23-15.51-13.29-23.53-2.01-3.96-3.19-8.2-4.2-12.49.15,8.9,2.43,17.16,8.62,23.65,6.07,6.36,8.04,14.14,8.53,22.34.57,9.54-.56,19.23,4.27,28.9-3.71-.69-4.66-3.06-5.7-4.84-14.94-25.65-28.72-51.83-36.1-80.87-6.19-24.35-3.45-47.17,11.38-68,1.21-1.7,2.95-3.25,2.88-5.66,0,0,.78-2.64,4.12-5.54Z"/>
        <path class="cls-3" d="M467.89,120.15c-21.02,8.52-42.46,10.61-64.5,8.3-18.37-1.92-35.93-6.55-52.38-15.08-.88-.46-1.79-.88-2.62-1.42-.38-.25-.59-.75-1.19-1.54,3.83-2.03,7.73-1.51,11.56-1.29,10.5.59,20.63,3.3,30.85,5.46,29.96,6.32,59.16,2.85,87.93-6.59,5.14-1.69,10.28-3.36,15.69-4.48-7.01,7.61-15.67,12.54-25.34,16.63Z"/>
        <path class="cls-3" d="M409.5,86.86c14.93,2.68,29.15,1.62,43.19-2.71,3.77-1.16,3.87-.94,7.21-.25.57,2.83-1.66,3.68-3.47,4.71-5.44,3.09-11.48,4.35-17.57,5.1-11.07,1.35-22.14,1.71-33.01-1.53-2.46-.73-5-1.5-6.66-4.16,3.34-2.48,6.7-1.07,10.31-1.16Z"/>
        <path class="cls-1" d="M452.64,96.57c2.48-.45,4.54-1.61,6.82-.05.43,3.46-2.41,4.39-4.69,5.34-11.93,4.97-24.46,5.93-37.18,4.94-4.8-.37-9.57-1.18-14.05-3.16-1.47-.65-3.27-.92-3.57-3.42,3.82-2.75,8.13-.92,11.86-.41,13.77,1.87,27.18.97,40.81-3.25Z"/>
      </g>
      <text class="cls-4" transform="translate(12 325.06) scale(.98 1)"><tspan x="0" y="0" xml:space="preserve">vaya/ raVoe^ jaaN&amp;yaamaU  pauraeihtaa:</tspan></text>
    </g>
  </g>
</svg>