<svg width="58" height="60" viewBox="0 0 58 60" fill="none" xmlns="http://www.w3.org/2000/svg">
<path d="M56.4996 27.0117C56.9851 27.0117 57.3785 26.6182 57.3785 26.1328V2.05078C57.3785 0.920039 56.4585 0 55.3277 0H25.8428C24.712 0 23.792 0.920039 23.792 2.05078V30.3105C22.3869 29.8798 20.8958 29.6473 19.3514 29.6473C18.5251 29.6473 17.7144 29.715 16.9236 29.843C15.6859 26.7132 12.6321 24.4924 9.0675 24.4924C4.41012 24.4924 0.621094 28.2814 0.621094 32.9388C0.621094 36.0713 2.33637 38.8088 4.8757 40.267C4.42148 41.7061 4.17504 43.2364 4.17504 44.8236C4.17504 53.192 10.9832 60 19.3515 60C25.0883 60 30.0915 56.8001 32.6711 52.0917H55.9325C56.73 52.0917 57.3786 51.443 57.3786 50.6456V30.2344C57.3786 29.749 56.9852 29.3555 56.4997 29.3555C56.0142 29.3555 55.6208 29.749 55.6208 30.2344V50.3339H33.4921C34.0588 48.8845 34.4085 47.3273 34.5016 45.7025H36.7941L38.71 48.5101C38.9393 48.8466 39.3193 49.0473 39.7267 49.0473H46.6527C47.1156 49.0473 47.5349 48.7916 47.7468 48.38C47.9586 47.9684 47.9231 47.4787 47.6542 47.1021L46.6553 45.7025H46.6976C47.1831 45.7025 47.5765 45.309 47.5765 44.8236C47.5765 44.3382 47.1831 43.9447 46.6976 43.9447H46.6553L47.6541 42.5454C47.9231 42.1686 47.9586 41.6789 47.7468 41.2672C47.5349 40.8557 47.1156 40.6 46.6527 40.6H39.7267C39.3195 40.6 38.9395 40.8007 38.7102 41.1368L36.7941 43.9447H34.5016C34.4086 42.3236 34.0603 40.7699 33.4958 39.3232H34.0654C34.7439 39.3232 35.2958 38.7713 35.2958 38.0927V34.3547C35.2958 33.6762 34.7439 33.1242 34.0654 33.1242H30.3273C29.9808 33.1242 29.6678 33.2687 29.4439 33.5C28.2898 32.4703 26.9783 31.6136 25.5498 30.9718V7.43273H55.6207V26.1328C55.6207 26.6182 56.0141 27.0117 56.4996 27.0117ZM40.0052 47.2895L38.9223 45.7025H44.4957L45.6284 47.2895H40.0052ZM40.0051 42.3577H45.6282L44.4956 43.9446H38.9222L40.0051 42.3577ZM2.37891 32.9388C2.37891 29.2507 5.37938 26.2502 9.0675 26.2502C12.7556 26.2502 15.7561 29.2507 15.7561 32.9388C15.7561 36.627 12.7556 39.6274 9.0675 39.6274C5.37938 39.6274 2.37891 36.6268 2.37891 32.9388ZM19.3514 58.2422C11.9523 58.2422 5.93273 52.2226 5.93273 44.8236C5.93273 43.4893 6.12891 42.2 6.49336 40.9828C7.30547 41.2433 8.17008 41.3852 9.0675 41.3852C9.17801 41.3852 9.28758 41.3811 9.39715 41.3769C9.02191 42.4575 8.81695 43.617 8.81695 44.8236C8.81695 50.6323 13.5427 55.358 19.3514 55.358C21.4021 55.358 23.3932 54.7635 25.1098 53.6387C25.5158 53.3727 25.6293 52.8279 25.3632 52.4218C25.0971 52.0159 24.5525 51.9025 24.1464 52.1685C22.7169 53.1052 21.0588 53.6002 19.3514 53.6002C14.5119 53.6002 10.5748 49.663 10.5748 44.8236C10.5748 43.4715 10.8837 42.1907 11.4325 41.0459C13.7988 40.3543 15.7373 38.6538 16.7498 36.4425C17.5723 36.1862 18.4457 36.047 19.3513 36.047C23.8941 36.047 27.6414 39.5164 28.0836 43.9447H25.1777C24.7521 41.1111 22.3016 38.9313 19.3512 38.9313C16.102 38.9313 13.4589 41.5746 13.4589 44.8236C13.4589 48.0727 16.1021 50.7159 19.3512 50.7159C22.3016 50.7159 24.7521 48.5361 25.1777 45.7025H28.0828C27.9466 47.0535 27.4984 48.3555 26.7649 49.5111C26.5048 49.9209 26.6261 50.4641 27.036 50.7243C27.4459 50.9844 27.9888 50.8631 28.2491 50.4532C29.1619 49.0153 29.7062 47.3882 29.8474 45.7025H32.7404C32.2861 52.6934 26.4551 58.2422 19.3514 58.2422ZM19.3514 45.7025H23.391C22.9868 47.5614 21.3295 48.9581 19.3514 48.9581C17.0716 48.9581 15.2169 47.1034 15.2169 44.8236C15.2169 42.5439 17.0716 40.6891 19.3514 40.6891C21.3295 40.6891 22.9868 42.0859 23.391 43.9447H19.3514C18.8659 43.9447 18.4725 44.3382 18.4725 44.8236C18.4725 45.309 18.8659 45.7025 19.3514 45.7025ZM30.8545 34.8819H33.5379V37.5653H32.6763C32.1614 36.6238 31.5496 35.7427 30.8544 34.9351V34.8819H30.8545ZM32.7404 43.9447H29.8487C29.4006 38.5458 24.864 34.2892 19.3514 34.2892C18.6744 34.2892 18.0127 34.3549 17.3709 34.4777C17.4633 33.9784 17.514 33.4645 17.514 32.9388C17.514 32.4653 17.4729 32.0013 17.3977 31.5487C18.0357 31.455 18.6878 31.405 19.3515 31.405C26.4551 31.405 32.2861 36.9538 32.7404 43.9447ZM30.8238 5.67492H25.5498V2.05078C25.5498 1.8893 25.6812 1.75781 25.8428 1.75781H30.8239V5.67492H30.8238ZM32.5816 5.67492V1.75781H55.3277C55.4893 1.75781 55.6207 1.8893 55.6207 2.05078V5.67492H32.5816Z" fill="#DF2E2E"/>
<path d="M51.1947 10.2087H37.501C37.0155 10.2087 36.6221 10.6022 36.6221 11.0876C36.6221 11.573 37.0155 11.9665 37.501 11.9665H51.1948C51.6803 11.9665 52.0737 11.573 52.0737 11.0876C52.0737 10.6022 51.6802 10.2087 51.1947 10.2087Z" fill="#DF2E2E"/>
<path d="M37.501 15.0506H45.6112C46.0967 15.0506 46.4901 14.6571 46.4901 14.1717C46.4901 13.6863 46.0967 13.2928 45.6112 13.2928H37.501C37.0155 13.2928 36.6221 13.6863 36.6221 14.1717C36.6221 14.6571 37.0155 15.0506 37.501 15.0506Z" fill="#DF2E2E"/>
<path d="M51.1947 18.0734H37.501C37.0155 18.0734 36.6221 18.4669 36.6221 18.9523C36.6221 19.4377 37.0155 19.8312 37.501 19.8312H51.1948C51.6803 19.8312 52.0737 19.4377 52.0737 18.9523C52.0737 18.4669 51.6802 18.0734 51.1947 18.0734Z" fill="#DF2E2E"/>
<path d="M37.501 22.9153H45.6112C46.0967 22.9153 46.4901 22.5218 46.4901 22.0364C46.4901 21.551 46.0967 21.1575 45.6112 21.1575H37.501C37.0155 21.1575 36.6221 21.551 36.6221 22.0364C36.6221 22.5218 37.0155 22.9153 37.501 22.9153Z" fill="#DF2E2E"/>
<path d="M51.1947 25.9379H37.501C37.0155 25.9379 36.6221 26.3314 36.6221 26.8168C36.6221 27.3022 37.0155 27.6957 37.501 27.6957H51.1948C51.6803 27.6957 52.0737 27.3022 52.0737 26.8168C52.0737 26.3314 51.6802 25.9379 51.1947 25.9379Z" fill="#DF2E2E"/>
<path d="M37.501 30.78H45.6112C46.0967 30.78 46.4901 30.3865 46.4901 29.9011C46.4901 29.4157 46.0967 29.0222 45.6112 29.0222H37.501C37.0155 29.0222 36.6221 29.4157 36.6221 29.9011C36.6221 30.3865 37.0155 30.78 37.501 30.78Z" fill="#DF2E2E"/>
<path d="M35.2957 10.7606C35.2957 10.0821 34.7437 9.53015 34.0652 9.53015H30.3271C29.6486 9.53015 29.0967 10.0821 29.0967 10.7606V14.4987C29.0967 15.1772 29.6486 15.7291 30.3271 15.7291H34.0652C34.7437 15.7291 35.2957 15.1772 35.2957 14.4987V10.7606ZM33.5379 13.9713H30.8545V11.288H33.5379V13.9713Z" fill="#DF2E2E"/>
<path d="M35.2957 18.6253C35.2957 17.9468 34.7437 17.3948 34.0652 17.3948H30.3271C29.6486 17.3948 29.0967 17.9468 29.0967 18.6253V22.3634C29.0967 23.0419 29.6486 23.5938 30.3271 23.5938H34.0652C34.7437 23.5938 35.2957 23.0419 35.2957 22.3634V18.6253ZM33.5379 21.836H30.8545V19.1526H33.5379V21.836Z" fill="#DF2E2E"/>
<path d="M34.0652 25.2594H30.3271C29.6486 25.2594 29.0967 25.8114 29.0967 26.4899V30.2279C29.0967 30.9064 29.6486 31.4584 30.3271 31.4584H34.0652C34.7437 31.4584 35.2957 30.9064 35.2957 30.2279V26.4899C35.2957 25.8115 34.7437 25.2594 34.0652 25.2594ZM33.5379 29.7007H30.8545V27.0173H33.5379V29.7007Z" fill="#DF2E2E"/>
<path d="M52.0736 34.6815C52.0736 34.1961 51.6802 33.8026 51.1947 33.8026H37.501C37.0155 33.8026 36.6221 34.1961 36.6221 34.6815C36.6221 35.1669 37.0155 35.5604 37.501 35.5604H51.1948C51.6802 35.5604 52.0736 35.1669 52.0736 34.6815Z" fill="#DF2E2E"/>
<path d="M37.501 36.8869C37.0155 36.8869 36.6221 37.2804 36.6221 37.7658C36.6221 38.2512 37.0155 38.6447 37.501 38.6447H45.6112C46.0967 38.6447 46.4901 38.2512 46.4901 37.7658C46.4901 37.2804 46.0967 36.8869 45.6112 36.8869H37.501Z" fill="#DF2E2E"/>
<path d="M9.94643 37.3923V36.7575C11.2119 36.7222 12.2312 35.6842 12.2312 34.4103C12.2312 33.1142 11.1768 32.0598 9.88068 32.0598H8.25436C7.92752 32.0598 7.66162 31.7939 7.66162 31.4671C7.66162 31.1402 7.92752 30.8743 8.25436 30.8743H11.1201C11.6056 30.8743 11.999 30.4808 11.999 29.9954C11.999 29.51 11.6056 29.1165 11.1201 29.1165H9.94643V28.4851C9.94643 27.9997 9.55303 27.6062 9.06752 27.6062C8.58201 27.6062 8.18861 27.9997 8.18861 28.4851V29.1198C6.92311 29.1551 5.90381 30.1931 5.90381 31.4669C5.90381 32.763 6.95826 33.8175 8.25436 33.8175H9.8808C10.2076 33.8175 10.4735 34.0834 10.4735 34.4102C10.4735 34.7371 10.2076 35.003 9.8808 35.003H7.01498C6.52947 35.003 6.13607 35.3965 6.13607 35.8819C6.13607 36.3673 6.52947 36.7608 7.01498 36.7608H8.18861V37.3922C8.18861 37.8776 8.58201 38.2711 9.06752 38.2711C9.55303 38.2711 9.94643 37.8777 9.94643 37.3923Z" fill="#DF2E2E"/>
<path d="M8.43441 23.2031H20.8518C21.563 23.2031 22.1418 22.6245 22.1418 21.9132V15.9375C22.1418 15.4521 21.7484 15.0586 21.2629 15.0586C20.7774 15.0586 20.384 15.4521 20.384 15.9375V21.4453H8.90234V8.79352L11.0746 6.62109H20.3839V11.8359C20.3839 12.3213 20.7773 12.7148 21.2628 12.7148C21.7483 12.7148 22.1417 12.3213 22.1417 11.8359V6.15316C22.1417 5.44195 21.563 4.86328 20.8517 4.86328H10.8808C10.5365 4.86328 10.2126 4.99734 9.96863 5.24109L7.52258 7.68738C7.27883 7.93102 7.14453 8.25492 7.14453 8.59969V21.9132C7.14453 22.6245 7.7232 23.2031 8.43441 23.2031Z" fill="#DF2E2E"/>
<path d="M17.4149 8.69354H11.8711C11.3856 8.69354 10.9922 9.08706 10.9922 9.57245C10.9922 10.0578 11.3856 10.4514 11.8711 10.4514H17.4149C17.9004 10.4514 18.2938 10.0578 18.2938 9.57245C18.2938 9.08706 17.9003 8.69354 17.4149 8.69354Z" fill="#DF2E2E"/>
<path d="M17.4149 11.6541H11.8711C11.3856 11.6541 10.9922 12.0476 10.9922 12.533C10.9922 13.0183 11.3856 13.4119 11.8711 13.4119H17.4149C17.9004 13.4119 18.2938 13.0183 18.2938 12.533C18.2938 12.0476 17.9003 11.6541 17.4149 11.6541Z" fill="#DF2E2E"/>
<path d="M18.2938 15.5201C18.2938 15.0347 17.9004 14.6412 17.4149 14.6412H11.8711C11.3856 14.6412 10.9922 15.0347 10.9922 15.5201C10.9922 16.0055 11.3856 16.399 11.8711 16.399H17.4149C17.9003 16.399 18.2938 16.0056 18.2938 15.5201Z" fill="#DF2E2E"/>
<path d="M11.8711 17.6151C11.3856 17.6151 10.9922 18.0086 10.9922 18.494C10.9922 18.9793 11.3856 19.3729 11.8711 19.3729H14.3562C14.8417 19.3729 15.2351 18.9793 15.2351 18.494C15.2351 18.0086 14.8417 17.6151 14.3562 17.6151H11.8711Z" fill="#DF2E2E"/>
</svg>
