<svg width="60" height="58" viewBox="0 0 60 58" fill="none" xmlns="http://www.w3.org/2000/svg">
<path d="M30 6.75794C30.4855 6.75794 30.8789 6.36443 30.8789 5.87904V1.57404C30.8789 1.08865 30.4855 0.695129 30 0.695129C29.5146 0.695129 29.1211 1.08865 29.1211 1.57404V5.87904C29.1211 6.36443 29.5146 6.75794 30 6.75794Z" fill="#DF2E2E"/>
<path d="M9.64941 22.8038H13.9544C14.4398 22.8038 14.8333 22.4103 14.8333 21.9249C14.8333 21.4395 14.4398 21.046 13.9544 21.046H9.64941C9.16402 21.046 8.77051 21.4395 8.77051 21.9249C8.77051 22.4103 9.16402 22.8038 9.64941 22.8038Z" fill="#DF2E2E"/>
<path d="M46.0459 22.8038H50.3509C50.8364 22.8038 51.2298 22.4103 51.2298 21.9249C51.2298 21.4395 50.8364 21.046 50.3509 21.046H46.0459C45.5604 21.046 45.167 21.4395 45.167 21.9249C45.167 22.4103 45.5604 22.8038 46.0459 22.8038Z" fill="#DF2E2E"/>
<path d="M41.3466 11.4577C41.5715 11.4577 41.7965 11.372 41.9682 11.2003L45.0123 8.1561C45.3555 7.81286 45.3555 7.25633 45.0121 6.91321C44.669 6.56985 44.1125 6.56996 43.7693 6.91321L40.7252 9.95739C40.3819 10.3006 40.3819 10.8572 40.7253 11.2003C40.8968 11.372 41.1218 11.4577 41.3466 11.4577Z" fill="#DF2E2E"/>
<path d="M18.0321 11.2003C18.2036 11.3719 18.4286 11.4578 18.6535 11.4578C18.8784 11.4578 19.1034 11.372 19.275 11.2003C19.6182 10.8571 19.6182 10.3005 19.275 9.9574L16.2308 6.91322C15.8875 6.56998 15.331 6.56998 14.9879 6.91322C14.6447 7.25647 14.6447 7.81299 14.9879 8.15611L18.0321 11.2003Z" fill="#DF2E2E"/>
<path d="M10.4297 47.3398H19.5703C20.0557 47.3398 20.4492 46.9463 20.4492 46.4609C20.4492 45.9755 20.0557 45.582 19.5703 45.582H10.4297C9.9443 45.582 9.55078 45.9755 9.55078 46.4609C9.55078 46.9463 9.9443 47.3398 10.4297 47.3398Z" fill="#DF2E2E"/>
<path d="M10.4297 50.3879H19.5703C20.0557 50.3879 20.4492 49.9944 20.4492 49.509C20.4492 49.0236 20.0557 48.6301 19.5703 48.6301H10.4297C9.9443 48.6301 9.55078 49.0236 9.55078 49.509C9.55078 49.9944 9.9443 50.3879 10.4297 50.3879Z" fill="#DF2E2E"/>
<path d="M50.8008 38.9065H49.0759C49.4501 37.669 49.6392 36.3861 49.6392 35.0778C49.6392 30.0805 46.8579 25.721 42.7623 23.4647C42.8324 22.9182 42.8687 22.364 42.8687 21.8043C42.8687 19.2107 42.0998 16.7102 40.6454 14.5729C40.3725 14.1717 39.8259 14.0677 39.4243 14.3408C39.0231 14.614 38.919 15.1606 39.1923 15.5619C40.4475 17.4063 41.1109 19.5649 41.1109 21.8043C41.1109 24.7496 39.9694 27.5246 37.8964 29.6182C36.3157 31.2148 35.0845 33.0923 34.2996 35.0892H30.8789V29.5841C34.7843 29.1457 37.8304 25.8248 37.8304 21.8043C37.8304 17.4867 34.3177 13.974 30 13.974C25.6823 13.974 22.1696 17.4867 22.1696 21.8043C22.1696 25.8248 25.2158 29.1457 29.1211 29.5841V35.0892H25.697C24.8945 33.048 23.6854 31.1914 22.166 29.681C19.9726 27.5004 18.8102 24.5946 18.8932 21.499C18.9693 18.6576 20.1308 15.9761 22.1637 13.9484C24.1965 11.9207 26.8811 10.766 29.7226 10.6968C32.2004 10.637 34.5591 11.3736 36.5488 12.828C36.9405 13.1144 37.4904 13.029 37.7769 12.6371C38.0633 12.2452 37.9779 11.6953 37.586 11.4089C35.2806 9.72384 32.5443 8.86907 29.6798 8.93962C26.3857 9.01977 23.2755 10.3565 20.9222 12.7039C18.5688 15.0513 17.2241 18.1581 17.136 21.452C17.0939 23.0247 17.3295 24.5553 17.8216 25.9912C13.4862 27.4769 10.3607 31.5925 10.3607 36.4254C10.3607 37.2644 10.4554 38.095 10.643 38.9067H9.19922C4.12676 38.9067 0 43.0334 0 48.1059C0 53.1784 4.12676 57.3051 9.19922 57.3051H16.183C16.6684 57.3051 17.0619 56.9116 17.0619 56.4262C17.0619 55.9408 16.6684 55.5473 16.183 55.5473H9.19922C5.09602 55.5473 1.75781 52.2091 1.75781 48.1059C1.75781 44.0027 5.09602 40.6645 9.19922 40.6645H11.8118C12.0968 40.6645 12.364 40.5263 12.5289 40.2938C12.6938 40.0613 12.7355 39.7634 12.6411 39.4945C12.2945 38.5064 12.1186 37.4738 12.1186 36.4254C12.1186 32.3189 14.8045 28.831 18.5108 27.6177C19.1241 28.8245 19.9337 29.9404 20.9269 30.9277C22.2327 32.2259 23.2807 33.8151 23.9938 35.5646C23.1547 36.1017 22.5969 37.0414 22.5969 38.1095C22.5969 38.9456 22.9386 39.7033 23.4895 40.2507C22.9386 40.7981 22.5969 41.5558 22.5969 42.392C22.5969 43.9761 23.8232 45.2784 25.3761 45.4017L25.6999 46.9022C26.1359 48.922 27.952 50.388 30.0184 50.388C30.904 50.388 31.7412 50.1197 32.4443 49.6551C33.8605 51.5912 36.1477 52.8519 38.7247 52.8519C42.2021 52.8519 45.2827 50.5136 46.2159 47.1658C46.3463 46.6982 46.0729 46.2136 45.6053 46.0831C45.1375 45.9524 44.653 46.2262 44.5227 46.6937C43.8005 49.2845 41.4162 51.094 38.7247 51.094C35.405 51.094 32.7043 48.3932 32.7043 45.0736C32.7043 41.754 35.405 39.0533 38.7247 39.0533C41.2935 39.0533 43.581 40.6852 44.417 43.1141C44.5751 43.573 45.075 43.8172 45.534 43.6591C45.993 43.5011 46.237 43.001 46.0791 42.542C44.9989 39.4038 42.0434 37.2954 38.7246 37.2954C38.2463 37.2954 37.7787 37.3411 37.324 37.4241C37.1426 36.6451 36.6591 35.9812 36.0037 35.5626C36.7038 33.85 37.777 32.2371 39.1457 30.8547C40.7072 29.2775 41.8118 27.3663 42.3938 25.2841C45.683 27.3082 47.8814 30.9404 47.8814 35.0776C47.8814 36.5884 47.5909 38.0597 47.0181 39.4504C46.9064 39.7215 46.9373 40.0305 47.1004 40.2741C47.2636 40.5178 47.5375 40.664 47.8307 40.664H50.8008C54.904 40.664 58.2422 44.0022 58.2422 48.1054C58.2422 52.2086 54.904 55.5468 50.8008 55.5468H20.2846C19.7992 55.5468 19.4057 55.9404 19.4057 56.4257C19.4057 56.9111 19.7992 57.3047 20.2846 57.3047H50.8008C55.8732 57.3047 60 53.1779 60 48.1054C60 43.0332 55.8732 38.9065 50.8008 38.9065ZM30 23.955C28.8142 23.955 27.8494 22.9902 27.8494 21.8043C27.8494 20.6185 28.8142 19.6537 30 19.6537C31.1858 19.6537 32.1507 20.6185 32.1507 21.8043C32.1507 22.9902 31.1858 23.955 30 23.955ZM23.9275 21.8043C23.9275 18.4559 26.6516 15.7318 30 15.7318C33.3484 15.7318 36.0725 18.4559 36.0725 21.8043C36.0725 24.8543 33.8122 27.3853 30.8789 27.8125V25.6119C32.612 25.2119 33.9086 23.6572 33.9086 21.8043C33.9086 19.6493 32.1552 17.8959 30 17.8959C27.8449 17.8959 26.0916 19.6493 26.0916 21.8043C26.0916 23.6572 27.388 25.2119 29.1211 25.6119V27.8125C26.1878 27.3853 23.9275 24.8541 23.9275 21.8043ZM30.0184 48.6301C28.7742 48.6301 27.6806 47.7473 27.4181 46.5311L27.1766 45.4121H30.9551C30.9963 46.3711 31.2114 47.2856 31.5705 48.1245C31.1295 48.4436 30.5909 48.6301 30.0184 48.6301ZM31.0786 43.6542H25.617C24.921 43.6542 24.3546 43.0879 24.3546 42.3918C24.3546 41.6958 24.921 41.1295 25.617 41.1295H32.0247C31.5711 41.8968 31.2464 42.7481 31.0786 43.6542ZM33.4417 39.3717H25.6168C24.9209 39.3717 24.3545 38.8053 24.3545 38.1093C24.3545 37.4134 24.9209 36.847 25.6168 36.847H34.383C35.021 36.847 35.5485 37.323 35.6325 37.9382C34.8212 38.2912 34.0818 38.7782 33.4417 39.3717Z" fill="#DF2E2E"/>
<path d="M41.2213 42.8465L38.2864 45.7816L36.228 43.7231C35.8846 43.3799 35.3282 43.3799 34.985 43.7231C34.6417 44.0663 34.6417 44.6229 34.985 44.966L37.6649 47.646C37.8298 47.8108 38.0533 47.9034 38.2865 47.9034C38.5197 47.9034 38.7431 47.8108 38.9081 47.646L42.4646 44.0894C42.8078 43.7462 42.8078 43.1897 42.4646 42.8465C42.1211 42.5034 41.5647 42.5034 41.2213 42.8465Z" fill="#DF2E2E"/>
</svg>
