<svg width="60" height="48" viewBox="0 0 60 48" fill="none" xmlns="http://www.w3.org/2000/svg">
<path d="M59.2277 36.0944L57.6536 34.5201C57.3103 34.177 56.7538 34.1769 56.4107 34.5201C56.0673 34.8634 56.0673 35.4199 56.4105 35.7631L57.9848 37.3374C58.1508 37.5035 58.2422 37.7242 58.2422 37.9589C58.2422 38.1936 58.1508 38.4143 57.9847 38.5803L55.8346 40.7306C55.4918 41.0733 54.9342 41.0733 54.5916 40.7306L45.4003 31.5395L48.7937 28.1462L53.5103 32.8629C53.8536 33.2061 54.41 33.2061 54.7533 32.8629C55.0965 32.5196 55.0965 31.9631 54.7533 31.62L49.9173 26.7841C49.6171 26.4839 49.2179 26.3187 48.7935 26.3187C48.4293 26.3187 48.0841 26.4411 47.8038 26.6653L44.9522 23.8137C46.4875 21.5256 47.3843 18.7748 47.3843 15.8184C47.3843 7.88553 40.9304 1.43167 32.9975 1.43167C31.1941 1.43167 29.4681 1.76682 27.8761 2.37561V1.42569C27.8761 0.747174 27.3241 0.195221 26.6456 0.195221H4.49719C3.81867 0.195221 3.26672 0.747174 3.26672 1.42569V9.44741C3.26672 10.1259 3.81867 10.6779 4.49719 10.6779H19.5622C18.9487 12.2751 18.6109 14.0078 18.6109 15.8184C18.6109 22.5462 23.2532 28.2092 29.5023 29.775V46.0472H27.5409V32.5646C27.5409 31.845 26.9555 31.2595 26.2357 31.2595H22.0623C21.3425 31.2595 20.7571 31.845 20.7571 32.5646V46.0469H18.7957V39.4687C18.7957 38.9833 18.4023 38.5898 17.9168 38.5898C17.4313 38.5898 17.0379 38.9833 17.0379 39.4687V46.0469H13.7698V25.4672H17.0379V35.3672C17.0379 35.8526 17.4313 36.2461 17.9168 36.2461C18.4023 36.2461 18.7957 35.8526 18.7957 35.3672V25.0145C18.7957 24.2948 18.2102 23.7094 17.4906 23.7094H13.3172C12.5974 23.7094 12.012 24.2948 12.012 25.0145V46.0469H10.0507V16.4816C10.0507 15.7619 9.46523 15.1765 8.74547 15.1765H4.57207C3.8523 15.1765 3.26684 15.7619 3.26684 16.4816V46.0471H0.878906C0.393398 46.0471 0 46.4406 0 46.926C0 47.4114 0.393398 47.8049 0.878906 47.8049H38.6741C39.1596 47.8049 39.553 47.4114 39.553 46.926C39.553 46.4406 39.1596 46.0471 38.6741 46.0471H36.2862V29.8248C37.991 29.4245 39.5803 28.721 40.9929 27.7731L43.856 30.6362C43.4276 31.2552 43.4875 32.1125 44.0382 32.6634L53.3486 41.9737C53.8625 42.4877 54.5377 42.7447 55.2129 42.7447C55.8881 42.7447 56.5634 42.4877 57.0775 41.9737L59.2276 39.8235C59.7257 39.3254 60 38.6633 60 37.959C60 37.2545 59.7257 36.5924 59.2277 36.0944ZM8.29289 46.0469H5.02465V16.9343H8.29289V46.0469ZM25.7832 46.0469H22.515V33.0173H25.7832V46.0469ZM5.02465 8.91995V1.95303H26.1184V8.92006L5.02465 8.91995ZM34.5284 46.0469H31.2602V30.0998C31.83 30.1687 32.4096 30.2051 32.9977 30.2051C33.5148 30.2051 34.0252 30.176 34.5284 30.1226V46.0469ZM32.9977 28.4473C26.034 28.4473 20.3687 22.7819 20.3687 15.8183C20.3687 13.9885 20.7612 12.2491 21.4643 10.6778H23.486C22.6557 12.2078 22.1823 13.9585 22.1823 15.8183C22.1823 21.782 27.034 26.6338 32.9977 26.6338C38.1253 26.6338 42.5837 22.9873 43.5988 17.9632C43.6949 17.4874 43.3871 17.0237 42.9114 16.9276C42.4355 16.8316 41.9719 17.1394 41.8758 17.615C41.0257 21.8223 37.292 24.876 32.9977 24.876C28.0034 24.876 23.9401 20.8127 23.9401 15.8183C23.9401 13.9099 24.5354 12.1392 25.5475 10.6778H26.6457C27.3243 10.6778 27.8762 10.1258 27.8762 9.44729V8.35522C29.334 7.35104 31.0976 6.76065 32.9977 6.76065C37.2185 6.76065 40.9385 9.75303 41.8431 13.8758C41.9473 14.3499 42.416 14.6498 42.89 14.5459C43.3642 14.4418 43.6642 13.9732 43.5602 13.499C43.0402 11.1294 41.7114 8.97456 39.8184 7.43155C37.897 5.86534 35.4748 5.00284 32.9977 5.00284C31.1455 5.00284 29.4018 5.47241 27.8762 6.29647V4.27651C29.4425 3.57866 31.1753 3.18936 32.9977 3.18936C39.9613 3.18936 45.6266 8.85467 45.6266 15.8183C45.6266 22.7819 39.9613 28.4473 32.9977 28.4473ZM42.4025 26.6967C42.9282 26.2415 43.4208 25.749 43.8759 25.2233L46.5532 27.9006L45.0798 29.374L42.4025 26.6967Z" fill="#DF2E2E"/>
<path d="M32.9978 8.96213C29.2173 8.96213 26.1416 12.0378 26.1416 15.8183C26.1416 19.5988 29.2173 22.6745 32.9978 22.6745C36.7782 22.6745 39.8539 19.5988 39.8539 15.8183C39.8539 12.0378 36.7782 8.96213 32.9978 8.96213ZM32.9978 20.9167C30.1866 20.9167 27.8994 18.6295 27.8994 15.8183C27.8994 14.7307 28.2429 13.7223 28.8254 12.8937L32.3767 16.4402C32.5414 16.6047 32.7649 16.6972 32.9978 16.6972H38.0187C37.6009 19.0909 35.5092 20.9167 32.9978 20.9167ZM33.3615 14.9394L30.0677 11.6499C30.8974 11.0651 31.9078 10.7201 32.9978 10.7201C35.5092 10.7201 37.6009 12.5458 38.0187 14.9395H33.3615V14.9394Z" fill="#DF2E2E"/>
<path d="M10.9336 4.55765H8.0127C7.52719 4.55765 7.13379 4.95116 7.13379 5.43655C7.13379 5.92194 7.52719 6.31546 8.0127 6.31546H10.9336C11.4191 6.31546 11.8125 5.92194 11.8125 5.43655C11.8125 4.95116 11.419 4.55765 10.9336 4.55765Z" fill="#DF2E2E"/>
<path d="M23.1299 4.55765H13.6377C13.1522 4.55765 12.7588 4.95116 12.7588 5.43655C12.7588 5.92194 13.1522 6.31546 13.6377 6.31546H23.1299C23.6154 6.31546 24.0088 5.92194 24.0088 5.43655C24.0088 4.95116 23.6154 4.55765 23.1299 4.55765Z" fill="#DF2E2E"/>
</svg>
